<svg width="287" height="174" viewBox="0 0 287 174" fill="none" xmlns="http://www.w3.org/2000/svg">
<path d="M17.52 139.12C13.68 138 11 136.88 9.48 135.76C8.04 134.64 7.32 133.24 7.32 131.56C7.32 130.28 7.68 128.48 8.4 126.16C9.12 123.84 10.16 121.12 11.52 118C12.96 114.8 14.64 111.28 16.56 107.44C18.56 103.6 20.8 99.48 23.28 95.08C21.2 95 19.32 94.96 17.64 94.96C16.04 94.88 14.72 94.84 13.68 94.84C14.16 93.64 15.52 92.6 17.76 91.72C20 90.84 22.96 90.08 26.64 89.44C29.76 84.24 33.08 79.28 36.6 74.56C40.2 69.84 43.8 65.52 47.4 61.6C51 57.6 54.6 54.12 58.2 51.16C61.8 48.12 65.24 45.72 68.52 43.96C68.6 43.4 68.64 42.92 68.64 42.52C68.72 42.12 68.76 41.84 68.76 41.68C69.88 41.68 71.36 41.96 73.2 42.52C75.12 43.08 76.96 43.76 78.72 44.56C80.56 45.36 82.16 46.2 83.52 47.08C84.96 47.88 85.76 48.56 85.92 49.12C83.28 53.76 80.68 60.72 78.12 70C75.56 79.2 73.44 90.24 71.76 103.12C71.36 106.32 71 109.96 70.68 114.04C70.44 118.12 70.32 122.68 70.32 127.72C70.32 129.48 70.32 131.28 70.32 133.12C70.32 134.96 70.4 136.88 70.56 138.88C70.4 138.96 70.24 139 70.08 139C69.92 139 69.6 139 69.12 139C68 139 66.68 138.8 65.16 138.4C63.72 138.08 62.28 137.64 60.84 137.08C59.48 136.6 58.28 136.04 57.24 135.4C56.28 134.76 55.68 134.2 55.44 133.72C55.36 132.68 55.32 131.64 55.32 130.6C55.32 129.64 55.32 128.6 55.32 127.48C55.32 122.52 55.48 117.48 55.8 112.36C56.2 107.24 56.84 101.96 57.72 96.52C56.6 96.44 55.12 96.36 53.28 96.28C51.44 96.12 49.36 96 47.04 95.92C44.8 95.84 42.36 95.76 39.72 95.68C37.16 95.52 34.64 95.4 32.16 95.32C30.24 98.92 28.44 102.52 26.76 106.12C25.08 109.64 23.64 113.2 22.44 116.8C21.08 120.64 19.96 124.48 19.08 128.32C18.28 132.16 17.76 135.76 17.52 139.12ZM63.84 67C64.16 65.88 64.52 64.36 64.92 62.44C65.4 60.44 65.84 58.36 66.24 56.2C64.24 56.92 62 58.24 59.52 60.16C57.12 62.08 54.6 64.48 51.96 67.36C49.4 70.16 46.76 73.36 44.04 76.96C41.4 80.48 38.84 84.24 36.36 88.24C43.08 87.68 50.72 87.32 59.28 87.16C59.92 83.8 60.6 80.48 61.32 77.2C62.12 73.84 62.96 70.44 63.84 67Z" fill="white"/>
<path d="M86.36 96.02C86.16 95.78 85.98 95.28 85.82 94.52C85.66 93.72 85.58 93.04 85.58 92.48C86.62 92.56 87.62 92.64 88.58 92.72C89.54 92.76 90.42 92.8 91.22 92.84C91.82 91.64 92.46 90.46 93.14 89.3C93.86 88.1 94.54 87.02 95.18 86.06C95.86 85.06 96.48 84.22 97.04 83.54C97.64 82.86 98.1 82.42 98.42 82.22C98.82 82.22 99.32 82.3 99.92 82.46C100.56 82.58 101.2 82.76 101.84 83C102.48 83.2 103.06 83.42 103.58 83.66C104.1 83.9 104.46 84.14 104.66 84.38C103.46 85.9 102.42 87.32 101.54 88.64C100.7 89.92 99.78 91.4 98.78 93.08C99.58 93.08 100.38 93.06 101.18 93.02C102.02 92.98 102.86 92.92 103.7 92.84C103.9 93.04 104.06 93.3 104.18 93.62C104.3 93.9 104.36 94.2 104.36 94.52C102.4 95.24 100.02 95.64 97.22 95.72C96.22 97.64 95.32 99.56 94.52 101.48C93.76 103.36 93.1 105.18 92.54 106.94C92.02 108.7 91.6 110.36 91.28 111.92C91 113.48 90.86 114.88 90.86 116.12C90.86 117.88 91.52 118.86 92.84 119.06C94.04 118.9 95.18 118.6 96.26 118.16C97.34 117.72 98.3 117.16 99.14 116.48C99.38 116.84 99.52 117.14 99.56 117.38C99.32 117.74 98.9 118.16 98.3 118.64C97.74 119.12 97.12 119.58 96.44 120.02C95.76 120.5 95.1 120.9 94.46 121.22C93.82 121.54 93.34 121.72 93.02 121.76C92.02 121.72 91.02 121.5 90.02 121.1C89.02 120.7 88.1 120.2 87.26 119.6C86.46 119 85.8 118.34 85.28 117.62C84.76 116.86 84.5 116.12 84.5 115.4C84.5 114.44 84.62 113.24 84.86 111.8C85.14 110.32 85.52 108.72 86 107C86.48 105.28 87.04 103.48 87.68 101.6C88.32 99.72 89.02 97.86 89.78 96.02H86.36ZM107.454 96.02C107.254 95.78 107.074 95.28 106.914 94.52C106.754 93.72 106.674 93.04 106.674 92.48C107.714 92.56 108.714 92.64 109.674 92.72C110.634 92.76 111.514 92.8 112.314 92.84C112.914 91.64 113.554 90.46 114.234 89.3C114.954 88.1 115.634 87.02 116.274 86.06C116.954 85.06 117.574 84.22 118.134 83.54C118.734 82.86 119.194 82.42 119.514 82.22C119.914 82.22 120.414 82.3 121.014 82.46C121.654 82.58 122.294 82.76 122.934 83C123.574 83.2 124.154 83.42 124.674 83.66C125.194 83.9 125.554 84.14 125.754 84.38C124.554 85.9 123.514 87.32 122.634 88.64C121.794 89.92 120.874 91.4 119.874 93.08C120.674 93.08 121.474 93.06 122.274 93.02C123.114 92.98 123.954 92.92 124.794 92.84C124.994 93.04 125.154 93.3 125.274 93.62C125.394 93.9 125.454 94.2 125.454 94.52C123.494 95.24 121.114 95.64 118.314 95.72C117.314 97.64 116.414 99.56 115.614 101.48C114.854 103.36 114.194 105.18 113.634 106.94C113.114 108.7 112.694 110.36 112.374 111.92C112.094 113.48 111.954 114.88 111.954 116.12C111.954 117.88 112.614 118.86 113.934 119.06C115.134 118.9 116.274 118.6 117.354 118.16C118.434 117.72 119.394 117.16 120.234 116.48C120.474 116.84 120.614 117.14 120.654 117.38C120.414 117.74 119.994 118.16 119.394 118.64C118.834 119.12 118.214 119.58 117.534 120.02C116.854 120.5 116.194 120.9 115.554 121.22C114.914 121.54 114.434 121.72 114.114 121.76C113.114 121.72 112.114 121.5 111.114 121.1C110.114 120.7 109.194 120.2 108.354 119.6C107.554 119 106.894 118.34 106.374 117.62C105.854 116.86 105.594 116.12 105.594 115.4C105.594 114.44 105.714 113.24 105.954 111.8C106.234 110.32 106.614 108.72 107.094 107C107.574 105.28 108.134 103.48 108.774 101.6C109.414 99.72 110.114 97.86 110.874 96.02H107.454ZM145.708 94.76C146.108 94.76 146.568 94.84 147.088 95C147.648 95.12 148.148 95.3 148.588 95.54C149.028 95.74 149.388 95.96 149.668 96.2C149.988 96.44 150.148 96.66 150.148 96.86C149.348 98.54 148.608 100.24 147.928 101.96C147.248 103.64 146.668 105.26 146.188 106.82C145.708 108.38 145.328 109.84 145.048 111.2C144.808 112.56 144.688 113.74 144.688 114.74C144.688 115.86 144.808 116.8 145.048 117.56C145.288 118.28 145.688 118.8 146.248 119.12C145.768 119.44 145.148 119.7 144.388 119.9C143.628 120.1 142.948 120.2 142.348 120.2C140.188 120.2 139.108 118.72 139.108 115.76C139.108 113.48 139.868 110.36 141.388 106.4C140.588 108.24 139.668 109.98 138.628 111.62C137.588 113.22 136.528 114.64 135.448 115.88C134.368 117.12 133.268 118.14 132.148 118.94C131.068 119.7 130.068 120.16 129.148 120.32C127.668 120.24 126.468 119.54 125.548 118.22C124.628 116.86 124.168 115.14 124.168 113.06C124.168 110.82 124.648 108.46 125.608 105.98C126.568 103.5 127.788 101.2 129.268 99.08C130.788 96.96 132.428 95.2 134.188 93.8C135.947 92.36 137.648 91.6 139.288 91.52C139.688 91.64 140.128 91.88 140.608 92.24C141.128 92.6 141.608 93.02 142.048 93.5C142.528 93.98 142.928 94.48 143.248 95C143.568 95.48 143.748 95.9 143.788 96.26C142.188 96.5 140.528 97.28 138.808 98.6C137.128 99.92 135.588 101.52 134.188 103.4C132.828 105.24 131.708 107.22 130.828 109.34C129.948 111.46 129.508 113.44 129.508 115.28C129.508 116.04 129.788 116.52 130.348 116.72C131.508 116.48 132.848 115.5 134.368 113.78C135.888 112.02 137.728 109.32 139.888 105.68C140.288 104.96 140.728 104.16 141.208 103.28C141.728 102.4 142.248 101.48 142.768 100.52C143.288 99.56 143.788 98.6 144.268 97.64C144.788 96.64 145.268 95.68 145.708 94.76ZM166.037 90.98C166.837 90.98 167.757 91.22 168.797 91.7C169.837 92.18 170.757 92.8 171.557 93.56C171.357 91.96 171.097 90.46 170.777 89.06C170.497 87.62 170.057 86.14 169.457 84.62C168.897 83.1 168.137 81.44 167.177 79.64C166.217 77.84 165.017 75.78 163.577 73.46C163.697 73.1 163.957 72.68 164.357 72.2C164.797 71.72 165.277 71.28 165.797 70.88C166.357 70.44 166.917 70.06 167.477 69.74C168.077 69.42 168.637 69.22 169.157 69.14C170.277 70.38 171.337 71.94 172.337 73.82C173.337 75.66 174.217 77.66 174.977 79.82C175.737 81.94 176.317 84.14 176.717 86.42C177.157 88.7 177.377 90.88 177.377 92.96C177.377 95.04 177.137 97.18 176.657 99.38C176.217 101.58 175.577 103.74 174.737 105.86C173.937 107.94 172.997 109.92 171.917 111.8C170.837 113.68 169.657 115.36 168.377 116.84C167.137 118.32 165.837 119.52 164.477 120.44C163.117 121.4 161.757 122 160.397 122.24C157.637 121.92 155.517 121.02 154.037 119.54C152.597 118.1 151.877 116.1 151.877 113.54C151.877 112.18 152.077 110.7 152.477 109.1C152.917 107.5 153.477 105.92 154.157 104.36C154.877 102.76 155.697 101.22 156.617 99.74C157.577 98.22 158.577 96.86 159.617 95.66C160.697 94.46 161.777 93.44 162.857 92.6C163.937 91.76 164.997 91.22 166.037 90.98ZM159.917 119.84C161.317 119.36 162.717 118.3 164.117 116.66C165.517 115.02 166.777 113.1 167.897 110.9C169.017 108.66 169.917 106.28 170.597 103.76C171.317 101.2 171.677 98.74 171.677 96.38C171.677 95.7 171.677 95.28 171.677 95.12C171.677 94.96 171.657 94.8 171.617 94.64C170.657 95.04 169.637 95.72 168.557 96.68C167.477 97.64 166.397 98.76 165.317 100.04C164.237 101.28 163.217 102.64 162.257 104.12C161.297 105.6 160.437 107.08 159.677 108.56C158.917 110.04 158.317 111.46 157.877 112.82C157.437 114.18 157.217 115.38 157.217 116.42C157.217 118.42 158.117 119.56 159.917 119.84ZM199.614 94.76C200.014 94.76 200.474 94.84 200.994 95C201.554 95.12 202.054 95.3 202.494 95.54C202.934 95.74 203.294 95.96 203.574 96.2C203.894 96.44 204.054 96.66 204.054 96.86C203.254 98.54 202.514 100.24 201.834 101.96C201.154 103.64 200.574 105.26 200.094 106.82C199.614 108.38 199.234 109.84 198.954 111.2C198.714 112.56 198.594 113.74 198.594 114.74C198.594 115.86 198.714 116.8 198.954 117.56C199.194 118.28 199.594 118.8 200.154 119.12C199.674 119.44 199.054 119.7 198.294 119.9C197.534 120.1 196.854 120.2 196.254 120.2C194.094 120.2 193.014 118.72 193.014 115.76C193.014 113.48 193.774 110.36 195.294 106.4C194.494 108.24 193.574 109.98 192.534 111.62C191.494 113.22 190.434 114.64 189.354 115.88C188.274 117.12 187.174 118.14 186.054 118.94C184.974 119.7 183.974 120.16 183.054 120.32C181.574 120.24 180.374 119.54 179.454 118.22C178.534 116.86 178.074 115.14 178.074 113.06C178.074 110.82 178.554 108.46 179.514 105.98C180.474 103.5 181.694 101.2 183.174 99.08C184.694 96.96 186.334 95.2 188.094 93.8C189.854 92.36 191.554 91.6 193.194 91.52C193.594 91.64 194.034 91.88 194.514 92.24C195.034 92.6 195.514 93.02 195.954 93.5C196.434 93.98 196.834 94.48 197.154 95C197.474 95.48 197.654 95.9 197.694 96.26C196.094 96.5 194.434 97.28 192.714 98.6C191.034 99.92 189.494 101.52 188.094 103.4C186.734 105.24 185.614 107.22 184.734 109.34C183.854 111.46 183.414 113.44 183.414 115.28C183.414 116.04 183.694 116.52 184.254 116.72C185.414 116.48 186.754 115.5 188.274 113.78C189.794 112.02 191.634 109.32 193.794 105.68C194.194 104.96 194.634 104.16 195.114 103.28C195.634 102.4 196.154 101.48 196.674 100.52C197.194 99.56 197.694 98.6 198.174 97.64C198.694 96.64 199.174 95.68 199.614 94.76ZM216.817 89.9C217.857 90.22 218.837 90.94 219.757 92.06C220.677 93.14 221.357 94.34 221.797 95.66C221.357 96.74 220.677 98.04 219.757 99.56C218.837 101.08 217.917 102.64 216.997 104.24C216.077 105.8 215.237 107.3 214.477 108.74C213.757 110.14 213.337 111.3 213.217 112.22C213.857 111.54 214.557 110.76 215.317 109.88C216.117 108.96 216.877 108.06 217.597 107.18C218.357 106.26 219.057 105.44 219.697 104.72C220.337 103.96 220.837 103.4 221.197 103.04C221.957 102.24 222.857 101.32 223.897 100.28C224.937 99.2 226.017 98.2 227.137 97.28C228.297 96.32 229.457 95.52 230.617 94.88C231.777 94.2 232.837 93.86 233.797 93.86C234.837 93.86 235.697 94.22 236.377 94.94C237.097 95.62 237.657 96.34 238.057 97.1C238.057 97.18 237.897 97.3 237.577 97.46C237.297 97.58 236.877 97.96 236.317 98.6C235.757 99.32 235.117 100.32 234.397 101.6C233.717 102.84 233.037 104.2 232.357 105.68C231.717 107.12 231.177 108.6 230.737 110.12C230.297 111.64 230.077 113.02 230.077 114.26C230.077 115.26 230.197 115.9 230.437 116.18C230.717 116.46 231.097 116.6 231.577 116.6C232.017 116.6 232.477 116.5 232.957 116.3C233.437 116.1 233.817 116 234.097 116C234.257 116.08 234.377 116.26 234.457 116.54C234.577 116.78 234.637 117 234.637 117.2C234.317 117.48 233.937 117.76 233.497 118.04C233.057 118.32 232.597 118.58 232.117 118.82C231.637 119.06 231.157 119.26 230.677 119.42C230.237 119.58 229.837 119.66 229.477 119.66C228.317 119.66 227.357 119.48 226.597 119.12C225.877 118.8 225.297 118.36 224.857 117.8C224.457 117.24 224.177 116.58 224.017 115.82C223.857 115.02 223.777 114.18 223.777 113.3C223.777 112.82 223.817 112.28 223.897 111.68C223.977 111.08 224.137 110.38 224.377 109.58C224.617 108.74 224.957 107.76 225.397 106.64C225.837 105.48 226.397 104.1 227.077 102.5C226.997 102.5 226.457 102.78 225.457 103.34C224.457 103.9 223.377 104.76 222.217 105.92C220.337 107.72 218.637 109.5 217.117 111.26C215.637 113.02 214.117 114.98 212.557 117.14C211.677 118.38 210.897 119.42 210.217 120.26C209.577 121.14 209.017 121.72 208.537 122C207.697 121.52 207.077 120.84 206.677 119.96C206.277 119.12 205.977 118.24 205.777 117.32C205.777 116.56 205.877 115.6 206.077 114.44C206.317 113.28 206.617 112 206.977 110.6C207.377 109.16 207.857 107.66 208.417 106.1C208.977 104.54 209.597 102.98 210.277 101.42C211.797 97.9 213.177 95.14 214.417 93.14C215.697 91.14 216.497 90.06 216.817 89.9ZM239.86 108.44C239.86 106.16 240.32 103.96 241.24 101.84C242.2 99.68 243.44 97.78 244.96 96.14C246.52 94.46 248.28 93.12 250.24 92.12C252.24 91.08 254.3 90.56 256.42 90.56C258.5 90.56 260.1 91.08 261.22 92.12C262.34 93.16 262.9 94.64 262.9 96.56C262.9 97.48 262.76 98.38 262.48 99.26C262.24 100.1 261.9 100.86 261.46 101.54C261.06 102.22 260.58 102.78 260.02 103.22C259.46 103.62 258.9 103.82 258.34 103.82C257.86 103.82 257.36 103.68 256.84 103.4C256.36 103.08 255.96 102.68 255.64 102.2C258.32 99.76 259.66 97.54 259.66 95.54C259.66 94.38 259.2 93.8 258.28 93.8C257.48 93.8 256.48 94.18 255.28 94.94C254.08 95.7 252.92 96.7 251.8 97.94C250.08 99.86 248.76 102 247.84 104.36C246.96 106.68 246.52 109.12 246.52 111.68C246.52 114.92 247.24 116.86 248.68 117.5C249.28 117.42 249.98 117.24 250.78 116.96C251.58 116.68 252.44 116.32 253.36 115.88C254.28 115.4 255.22 114.86 256.18 114.26C257.18 113.66 258.14 113.02 259.06 112.34C259.22 112.46 259.36 112.64 259.48 112.88C259.6 113.12 259.66 113.34 259.66 113.54C258.98 114.38 258.2 115.2 257.32 116C256.44 116.8 255.52 117.54 254.56 118.22C253.6 118.86 252.66 119.4 251.74 119.84C250.86 120.32 250.08 120.62 249.4 120.74C248.08 120.62 246.84 120.2 245.68 119.48C244.52 118.8 243.5 117.9 242.62 116.78C241.78 115.66 241.1 114.38 240.58 112.94C240.1 111.5 239.86 110 239.86 108.44ZM286.175 94.16C286.015 96.64 285.575 98.78 284.855 100.58C284.135 102.34 283.095 103.9 281.735 105.26C280.415 106.58 278.795 107.78 276.875 108.86C274.955 109.94 272.715 110.98 270.155 111.98C270.155 112.22 270.135 112.48 270.095 112.76C270.095 113 270.095 113.26 270.095 113.54C270.095 114.06 270.135 114.6 270.215 115.16C270.295 115.72 270.435 116.24 270.635 116.72C270.835 117.2 271.115 117.6 271.475 117.92C271.835 118.2 272.295 118.34 272.855 118.34C273.935 118.34 274.995 118.1 276.035 117.62C277.075 117.14 278.055 116.56 278.975 115.88C279.935 115.16 280.815 114.4 281.615 113.6C282.455 112.76 283.195 112 283.835 111.32C284.235 111.68 284.575 112.02 284.855 112.34C283.055 114.74 281.075 116.74 278.915 118.34C276.795 119.9 274.775 120.9 272.855 121.34C270.095 121.02 267.935 120.02 266.375 118.34C264.855 116.62 264.095 114.56 264.095 112.16C264.095 110.52 264.315 108.86 264.755 107.18C265.235 105.46 265.875 103.82 266.675 102.26C267.515 100.66 268.475 99.16 269.555 97.76C270.675 96.36 271.855 95.14 273.095 94.1C274.375 93.06 275.675 92.24 276.995 91.64C278.355 91.04 279.695 90.74 281.015 90.74C282.855 90.98 284.575 92.12 286.175 94.16ZM282.035 96.14C280.955 96.3 279.835 96.74 278.675 97.46C277.515 98.18 276.415 99.14 275.375 100.34C274.375 101.54 273.455 102.94 272.615 104.54C271.775 106.14 271.115 107.86 270.635 109.7C273.835 108.1 276.495 106.14 278.615 103.82C280.735 101.46 281.875 98.9 282.035 96.14Z" fill="white"/>
<path d="M197.685 135.336H199.054L202.548 144.03L206.034 135.336H207.411L203.075 146H202.006L197.685 135.336ZM197.238 135.336H198.446L198.644 141.84V146H197.238V135.336ZM206.642 135.336H207.851V146H206.444V141.84L206.642 135.336ZM214.801 144.645V140.565C214.801 140.253 214.738 139.982 214.611 139.752C214.489 139.518 214.303 139.337 214.054 139.21C213.805 139.083 213.498 139.02 213.131 139.02C212.79 139.02 212.489 139.079 212.23 139.196C211.977 139.313 211.776 139.467 211.63 139.657C211.488 139.848 211.417 140.053 211.417 140.272H210.062C210.062 139.989 210.136 139.708 210.282 139.43C210.429 139.152 210.639 138.9 210.912 138.676C211.19 138.446 211.522 138.266 211.908 138.134C212.299 137.997 212.733 137.929 213.212 137.929C213.788 137.929 214.296 138.026 214.735 138.222C215.18 138.417 215.526 138.712 215.775 139.108C216.029 139.499 216.156 139.989 216.156 140.58V144.271C216.156 144.535 216.178 144.816 216.222 145.114C216.271 145.412 216.342 145.668 216.435 145.883V146H215.021C214.953 145.844 214.899 145.636 214.86 145.377C214.821 145.114 214.801 144.87 214.801 144.645ZM215.036 141.195L215.05 142.147H213.681C213.295 142.147 212.951 142.179 212.648 142.243C212.345 142.301 212.091 142.392 211.886 142.514C211.681 142.636 211.525 142.79 211.417 142.975C211.31 143.156 211.256 143.368 211.256 143.612C211.256 143.861 211.312 144.088 211.425 144.293C211.537 144.499 211.706 144.662 211.93 144.784C212.16 144.901 212.44 144.96 212.772 144.96C213.188 144.96 213.554 144.872 213.871 144.696C214.188 144.521 214.44 144.306 214.625 144.052C214.816 143.798 214.918 143.551 214.933 143.312L215.512 143.964C215.478 144.169 215.385 144.396 215.233 144.645C215.082 144.894 214.879 145.133 214.625 145.363C214.376 145.587 214.079 145.775 213.732 145.927C213.39 146.073 213.004 146.146 212.575 146.146C212.038 146.146 211.566 146.042 211.161 145.832C210.761 145.622 210.448 145.341 210.224 144.989C210.004 144.633 209.894 144.235 209.894 143.795C209.894 143.371 209.977 142.997 210.143 142.675C210.309 142.348 210.548 142.077 210.861 141.862C211.173 141.642 211.549 141.476 211.989 141.364C212.428 141.251 212.919 141.195 213.461 141.195H215.036ZM219.643 139.767V146H218.288V138.075H219.569L219.643 139.767ZM219.32 141.737L218.756 141.715C218.761 141.173 218.842 140.673 218.998 140.214C219.154 139.75 219.374 139.347 219.657 139.005C219.94 138.664 220.277 138.4 220.668 138.214C221.063 138.024 221.5 137.929 221.979 137.929C222.37 137.929 222.721 137.982 223.034 138.09C223.346 138.192 223.612 138.358 223.832 138.588C224.057 138.817 224.228 139.115 224.345 139.481C224.462 139.843 224.521 140.285 224.521 140.807V146H223.158V140.792C223.158 140.377 223.097 140.045 222.975 139.796C222.853 139.542 222.675 139.359 222.44 139.247C222.206 139.13 221.918 139.071 221.576 139.071C221.239 139.071 220.932 139.142 220.653 139.284C220.38 139.425 220.143 139.621 219.943 139.87C219.748 140.119 219.594 140.404 219.481 140.727C219.374 141.044 219.32 141.381 219.32 141.737ZM231.251 144.645V140.565C231.251 140.253 231.188 139.982 231.061 139.752C230.939 139.518 230.753 139.337 230.504 139.21C230.255 139.083 229.948 139.02 229.582 139.02C229.24 139.02 228.939 139.079 228.681 139.196C228.427 139.313 228.227 139.467 228.08 139.657C227.938 139.848 227.868 140.053 227.868 140.272H226.513C226.513 139.989 226.586 139.708 226.732 139.43C226.879 139.152 227.089 138.9 227.362 138.676C227.641 138.446 227.973 138.266 228.358 138.134C228.749 137.997 229.184 137.929 229.662 137.929C230.238 137.929 230.746 138.026 231.186 138.222C231.63 138.417 231.977 138.712 232.226 139.108C232.479 139.499 232.606 139.989 232.606 140.58V144.271C232.606 144.535 232.628 144.816 232.672 145.114C232.721 145.412 232.792 145.668 232.885 145.883V146H231.471C231.403 145.844 231.349 145.636 231.31 145.377C231.271 145.114 231.251 144.87 231.251 144.645ZM231.486 141.195L231.5 142.147H230.131C229.745 142.147 229.401 142.179 229.098 142.243C228.795 142.301 228.542 142.392 228.336 142.514C228.131 142.636 227.975 142.79 227.868 142.975C227.76 143.156 227.707 143.368 227.707 143.612C227.707 143.861 227.763 144.088 227.875 144.293C227.987 144.499 228.156 144.662 228.38 144.784C228.61 144.901 228.891 144.96 229.223 144.96C229.638 144.96 230.004 144.872 230.321 144.696C230.639 144.521 230.89 144.306 231.076 144.052C231.266 143.798 231.369 143.551 231.383 143.312L231.962 143.964C231.928 144.169 231.835 144.396 231.684 144.645C231.532 144.894 231.33 145.133 231.076 145.363C230.827 145.587 230.529 145.775 230.182 145.927C229.84 146.073 229.455 146.146 229.025 146.146C228.488 146.146 228.017 146.042 227.611 145.832C227.211 145.622 226.898 145.341 226.674 144.989C226.454 144.633 226.344 144.235 226.344 143.795C226.344 143.371 226.427 142.997 226.593 142.675C226.759 142.348 226.999 142.077 227.311 141.862C227.624 141.642 228 141.476 228.439 141.364C228.878 141.251 229.369 141.195 229.911 141.195H231.486ZM239.872 138.075H241.103V145.832C241.103 146.53 240.961 147.125 240.678 147.619C240.395 148.112 239.999 148.485 239.491 148.739C238.988 148.998 238.407 149.127 237.748 149.127C237.475 149.127 237.152 149.083 236.781 148.996C236.415 148.913 236.054 148.769 235.697 148.563C235.346 148.363 235.05 148.092 234.811 147.75L235.521 146.945C235.854 147.345 236.2 147.624 236.562 147.78C236.928 147.936 237.289 148.014 237.646 148.014C238.075 148.014 238.446 147.934 238.759 147.772C239.071 147.611 239.313 147.372 239.484 147.055C239.66 146.742 239.748 146.356 239.748 145.897V139.818L239.872 138.075ZM234.416 142.125V141.972C234.416 141.366 234.486 140.817 234.628 140.324C234.774 139.826 234.982 139.398 235.25 139.042C235.524 138.686 235.854 138.412 236.239 138.222C236.625 138.026 237.06 137.929 237.543 137.929C238.041 137.929 238.476 138.017 238.847 138.192C239.223 138.363 239.54 138.615 239.799 138.947C240.062 139.274 240.27 139.669 240.421 140.133C240.573 140.597 240.678 141.122 240.736 141.708V142.382C240.683 142.963 240.578 143.485 240.421 143.949C240.27 144.413 240.062 144.809 239.799 145.136C239.54 145.463 239.223 145.714 238.847 145.89C238.471 146.061 238.031 146.146 237.528 146.146C237.055 146.146 236.625 146.046 236.239 145.846C235.858 145.646 235.531 145.365 235.258 145.004C234.984 144.643 234.774 144.218 234.628 143.729C234.486 143.236 234.416 142.702 234.416 142.125ZM235.771 141.972V142.125C235.771 142.521 235.81 142.892 235.888 143.239C235.971 143.585 236.095 143.891 236.261 144.154C236.432 144.418 236.649 144.625 236.913 144.777C237.177 144.923 237.492 144.997 237.858 144.997C238.307 144.997 238.678 144.901 238.971 144.711C239.264 144.521 239.496 144.269 239.667 143.957C239.843 143.644 239.979 143.305 240.077 142.938V141.173C240.023 140.905 239.94 140.646 239.828 140.397C239.721 140.143 239.579 139.918 239.403 139.723C239.232 139.523 239.02 139.364 238.766 139.247C238.512 139.13 238.214 139.071 237.873 139.071C237.501 139.071 237.182 139.149 236.913 139.306C236.649 139.457 236.432 139.667 236.261 139.936C236.095 140.199 235.971 140.507 235.888 140.858C235.81 141.205 235.771 141.576 235.771 141.972ZM246.449 146.146C245.897 146.146 245.397 146.054 244.948 145.868C244.503 145.678 244.12 145.412 243.798 145.07C243.48 144.728 243.236 144.323 243.065 143.854C242.895 143.385 242.809 142.873 242.809 142.316V142.008C242.809 141.364 242.904 140.79 243.095 140.287C243.285 139.779 243.544 139.35 243.871 138.998C244.198 138.646 244.569 138.38 244.984 138.2C245.399 138.019 245.829 137.929 246.273 137.929C246.84 137.929 247.328 138.026 247.738 138.222C248.153 138.417 248.493 138.69 248.756 139.042C249.02 139.389 249.215 139.799 249.342 140.272C249.469 140.741 249.533 141.254 249.533 141.811V142.418H243.615V141.312H248.178V141.21C248.158 140.858 248.085 140.517 247.958 140.185C247.836 139.853 247.641 139.579 247.372 139.364C247.104 139.149 246.737 139.042 246.273 139.042C245.966 139.042 245.683 139.108 245.424 139.24C245.165 139.367 244.943 139.557 244.757 139.811C244.572 140.065 244.428 140.375 244.325 140.741C244.223 141.107 244.171 141.53 244.171 142.008V142.316C244.171 142.692 244.223 143.046 244.325 143.378C244.433 143.705 244.586 143.993 244.787 144.242C244.992 144.491 245.238 144.687 245.526 144.828C245.819 144.97 246.151 145.041 246.522 145.041C247.001 145.041 247.406 144.943 247.738 144.748C248.07 144.552 248.361 144.291 248.61 143.964L249.43 144.616C249.259 144.875 249.042 145.121 248.778 145.355C248.515 145.59 248.19 145.78 247.804 145.927C247.423 146.073 246.972 146.146 246.449 146.146ZM252.462 139.65V146H251.1V138.075H252.389L252.462 139.65ZM252.184 141.737L251.554 141.715C251.559 141.173 251.63 140.673 251.767 140.214C251.903 139.75 252.106 139.347 252.375 139.005C252.643 138.664 252.978 138.4 253.378 138.214C253.778 138.024 254.242 137.929 254.77 137.929C255.141 137.929 255.482 137.982 255.795 138.09C256.107 138.192 256.378 138.356 256.608 138.581C256.837 138.805 257.016 139.093 257.143 139.445C257.27 139.796 257.333 140.221 257.333 140.719V146H255.978V140.785C255.978 140.37 255.907 140.038 255.766 139.789C255.629 139.54 255.434 139.359 255.18 139.247C254.926 139.13 254.628 139.071 254.286 139.071C253.886 139.071 253.551 139.142 253.283 139.284C253.014 139.425 252.799 139.621 252.638 139.87C252.477 140.119 252.36 140.404 252.287 140.727C252.218 141.044 252.184 141.381 252.184 141.737ZM257.318 140.99L256.41 141.269C256.415 140.834 256.486 140.417 256.623 140.016C256.764 139.616 256.967 139.259 257.23 138.947C257.499 138.634 257.829 138.388 258.219 138.207C258.61 138.021 259.057 137.929 259.56 137.929C259.984 137.929 260.36 137.985 260.688 138.097C261.02 138.209 261.298 138.383 261.522 138.617C261.752 138.847 261.925 139.142 262.042 139.503C262.16 139.865 262.218 140.294 262.218 140.792V146H260.856V140.778C260.856 140.333 260.785 139.989 260.644 139.745C260.507 139.496 260.312 139.323 260.058 139.225C259.809 139.123 259.511 139.071 259.164 139.071C258.866 139.071 258.603 139.123 258.373 139.225C258.144 139.328 257.951 139.469 257.794 139.65C257.638 139.826 257.519 140.028 257.436 140.258C257.357 140.487 257.318 140.731 257.318 140.99ZM267.558 146.146C267.006 146.146 266.505 146.054 266.056 145.868C265.612 145.678 265.229 145.412 264.906 145.07C264.589 144.728 264.345 144.323 264.174 143.854C264.003 143.385 263.917 142.873 263.917 142.316V142.008C263.917 141.364 264.013 140.79 264.203 140.287C264.394 139.779 264.652 139.35 264.979 138.998C265.307 138.646 265.678 138.38 266.093 138.2C266.508 138.019 266.938 137.929 267.382 137.929C267.948 137.929 268.437 138.026 268.847 138.222C269.262 138.417 269.601 138.69 269.865 139.042C270.128 139.389 270.324 139.799 270.451 140.272C270.578 140.741 270.641 141.254 270.641 141.811V142.418H264.723V141.312H269.286V141.21C269.267 140.858 269.193 140.517 269.066 140.185C268.944 139.853 268.749 139.579 268.48 139.364C268.212 139.149 267.846 139.042 267.382 139.042C267.074 139.042 266.791 139.108 266.532 139.24C266.273 139.367 266.051 139.557 265.866 139.811C265.68 140.065 265.536 140.375 265.434 140.741C265.331 141.107 265.28 141.53 265.28 142.008V142.316C265.28 142.692 265.331 143.046 265.434 143.378C265.541 143.705 265.695 143.993 265.895 144.242C266.1 144.491 266.347 144.687 266.635 144.828C266.928 144.97 267.26 145.041 267.631 145.041C268.109 145.041 268.515 144.943 268.847 144.748C269.179 144.552 269.469 144.291 269.718 143.964L270.539 144.616C270.368 144.875 270.15 145.121 269.887 145.355C269.623 145.59 269.298 145.78 268.913 145.927C268.532 146.073 268.08 146.146 267.558 146.146ZM273.578 139.767V146H272.223V138.075H273.505L273.578 139.767ZM273.256 141.737L272.692 141.715C272.697 141.173 272.777 140.673 272.934 140.214C273.09 139.75 273.31 139.347 273.593 139.005C273.876 138.664 274.213 138.4 274.604 138.214C274.999 138.024 275.436 137.929 275.915 137.929C276.305 137.929 276.657 137.982 276.969 138.09C277.282 138.192 277.548 138.358 277.768 138.588C277.992 138.817 278.163 139.115 278.28 139.481C278.397 139.843 278.456 140.285 278.456 140.807V146H277.094V140.792C277.094 140.377 277.033 140.045 276.911 139.796C276.789 139.542 276.61 139.359 276.376 139.247C276.142 139.13 275.854 139.071 275.512 139.071C275.175 139.071 274.867 139.142 274.589 139.284C274.315 139.425 274.079 139.621 273.878 139.87C273.683 140.119 273.529 140.404 273.417 140.727C273.31 141.044 273.256 141.381 273.256 141.737ZM283.832 138.075V139.115H279.547V138.075H283.832ZM280.998 136.149H282.353V144.037C282.353 144.306 282.394 144.508 282.477 144.645C282.56 144.782 282.667 144.872 282.799 144.916C282.931 144.96 283.073 144.982 283.224 144.982C283.336 144.982 283.454 144.972 283.576 144.953C283.703 144.928 283.798 144.909 283.861 144.894L283.869 146C283.761 146.034 283.62 146.066 283.444 146.095C283.273 146.129 283.065 146.146 282.821 146.146C282.489 146.146 282.184 146.081 281.906 145.949C281.627 145.817 281.405 145.597 281.239 145.29C281.078 144.977 280.998 144.557 280.998 144.03V136.149Z" fill="white"/>
</svg>
